<mxfile host="app.diagrams.net" modified="2021-10-28T02:29:15.974Z" agent="5.0 (Windows NT 10.0; Win64; x64) AppleWebKit/537.36 (KHTML, like Gecko) Chrome/95.0.4638.54 Safari/537.36" etag="mgeGFMNMBXz_ySqbJ130" version="15.5.7" type="github">
  <diagram id="UxC3YACcDm0k6JR7MXtU" name="第 1 页">
    <mxGraphModel dx="1038" dy="547" grid="1" gridSize="10" guides="1" tooltips="1" connect="1" arrows="1" fold="1" page="1" pageScale="1" pageWidth="827" pageHeight="1169" math="0" shadow="0">
      <root>
        <mxCell id="0" />
        <mxCell id="1" parent="0" />
        <mxCell id="HXHGz3vYbTohG5uwLFiS-1" value="" style="rounded=0;whiteSpace=wrap;html=1;fillColor=#fff2cc;strokeColor=#d6b656;" vertex="1" parent="1">
          <mxGeometry x="50" y="150" width="200" height="290" as="geometry" />
        </mxCell>
        <mxCell id="HXHGz3vYbTohG5uwLFiS-2" value="" style="rounded=0;whiteSpace=wrap;html=1;fillColor=#6a00ff;fontColor=#ffffff;strokeColor=#3700CC;" vertex="1" parent="1">
          <mxGeometry x="90" y="200" width="120" height="80" as="geometry" />
        </mxCell>
        <mxCell id="HXHGz3vYbTohG5uwLFiS-3" value="" style="rounded=0;whiteSpace=wrap;html=1;fillColor=#d80073;fontColor=#ffffff;strokeColor=#A50040;" vertex="1" parent="1">
          <mxGeometry x="90" y="320" width="120" height="80" as="geometry" />
        </mxCell>
        <mxCell id="HXHGz3vYbTohG5uwLFiS-4" value="&lt;b&gt;RDD&lt;/b&gt;" style="text;html=1;resizable=0;autosize=1;align=center;verticalAlign=middle;points=[];fillColor=none;strokeColor=none;rounded=0;" vertex="1" parent="1">
          <mxGeometry x="60" y="160" width="40" height="20" as="geometry" />
        </mxCell>
        <mxCell id="HXHGz3vYbTohG5uwLFiS-5" value="&lt;b&gt;1&lt;/b&gt;" style="ellipse;whiteSpace=wrap;html=1;aspect=fixed;" vertex="1" parent="1">
          <mxGeometry x="132.5" y="200" width="35" height="35" as="geometry" />
        </mxCell>
        <mxCell id="HXHGz3vYbTohG5uwLFiS-7" value="&lt;b&gt;2&lt;/b&gt;" style="ellipse;whiteSpace=wrap;html=1;aspect=fixed;" vertex="1" parent="1">
          <mxGeometry x="132.5" y="245" width="35" height="35" as="geometry" />
        </mxCell>
        <mxCell id="HXHGz3vYbTohG5uwLFiS-8" value="&lt;b&gt;3&lt;/b&gt;" style="ellipse;whiteSpace=wrap;html=1;aspect=fixed;" vertex="1" parent="1">
          <mxGeometry x="132.5" y="320" width="35" height="35" as="geometry" />
        </mxCell>
        <mxCell id="HXHGz3vYbTohG5uwLFiS-9" value="&lt;b&gt;4&lt;/b&gt;" style="ellipse;whiteSpace=wrap;html=1;aspect=fixed;" vertex="1" parent="1">
          <mxGeometry x="132.5" y="365" width="35" height="35" as="geometry" />
        </mxCell>
        <mxCell id="HXHGz3vYbTohG5uwLFiS-10" value="" style="rounded=0;whiteSpace=wrap;html=1;fillColor=#fff2cc;strokeColor=#d6b656;" vertex="1" parent="1">
          <mxGeometry x="370" y="150" width="200" height="290" as="geometry" />
        </mxCell>
        <mxCell id="HXHGz3vYbTohG5uwLFiS-11" value="" style="rounded=0;whiteSpace=wrap;html=1;fillColor=#6a00ff;fontColor=#ffffff;strokeColor=#3700CC;" vertex="1" parent="1">
          <mxGeometry x="410" y="200" width="120" height="80" as="geometry" />
        </mxCell>
        <mxCell id="HXHGz3vYbTohG5uwLFiS-12" value="" style="rounded=0;whiteSpace=wrap;html=1;fillColor=#d80073;fontColor=#ffffff;strokeColor=#A50040;" vertex="1" parent="1">
          <mxGeometry x="410" y="320" width="120" height="80" as="geometry" />
        </mxCell>
        <mxCell id="HXHGz3vYbTohG5uwLFiS-13" value="&lt;b&gt;RDD&lt;/b&gt;" style="text;html=1;resizable=0;autosize=1;align=center;verticalAlign=middle;points=[];fillColor=none;strokeColor=none;rounded=0;" vertex="1" parent="1">
          <mxGeometry x="380" y="160" width="40" height="20" as="geometry" />
        </mxCell>
        <mxCell id="HXHGz3vYbTohG5uwLFiS-14" value="&lt;b&gt;1&lt;/b&gt;" style="ellipse;whiteSpace=wrap;html=1;aspect=fixed;" vertex="1" parent="1">
          <mxGeometry x="452.5" y="200" width="35" height="35" as="geometry" />
        </mxCell>
        <mxCell id="HXHGz3vYbTohG5uwLFiS-15" value="&lt;b&gt;3&lt;/b&gt;" style="ellipse;whiteSpace=wrap;html=1;aspect=fixed;" vertex="1" parent="1">
          <mxGeometry x="452.5" y="245" width="35" height="35" as="geometry" />
        </mxCell>
        <mxCell id="HXHGz3vYbTohG5uwLFiS-16" value="&lt;b&gt;2&lt;/b&gt;" style="ellipse;whiteSpace=wrap;html=1;aspect=fixed;" vertex="1" parent="1">
          <mxGeometry x="452.5" y="320" width="35" height="35" as="geometry" />
        </mxCell>
        <mxCell id="HXHGz3vYbTohG5uwLFiS-17" value="&lt;b&gt;4&lt;/b&gt;" style="ellipse;whiteSpace=wrap;html=1;aspect=fixed;" vertex="1" parent="1">
          <mxGeometry x="452.5" y="365" width="35" height="35" as="geometry" />
        </mxCell>
        <mxCell id="HXHGz3vYbTohG5uwLFiS-19" style="edgeStyle=orthogonalEdgeStyle;rounded=0;orthogonalLoop=1;jettySize=auto;html=1;exitX=1;exitY=0.75;exitDx=0;exitDy=0;entryX=0;entryY=0.75;entryDx=0;entryDy=0;jumpSize=15;" edge="1" parent="1" source="HXHGz3vYbTohG5uwLFiS-3" target="HXHGz3vYbTohG5uwLFiS-12">
          <mxGeometry relative="1" as="geometry" />
        </mxCell>
        <mxCell id="HXHGz3vYbTohG5uwLFiS-18" style="edgeStyle=orthogonalEdgeStyle;rounded=0;orthogonalLoop=1;jettySize=auto;html=1;exitX=1;exitY=0.25;exitDx=0;exitDy=0;jumpStyle=none;jumpSize=15;" edge="1" parent="1" source="HXHGz3vYbTohG5uwLFiS-2">
          <mxGeometry relative="1" as="geometry">
            <mxPoint x="410" y="220" as="targetPoint" />
          </mxGeometry>
        </mxCell>
        <mxCell id="HXHGz3vYbTohG5uwLFiS-20" style="rounded=0;jumpStyle=none;jumpSize=15;orthogonalLoop=1;jettySize=auto;html=1;exitX=1;exitY=0.25;exitDx=0;exitDy=0;entryX=0;entryY=0.75;entryDx=0;entryDy=0;" edge="1" parent="1" source="HXHGz3vYbTohG5uwLFiS-3" target="HXHGz3vYbTohG5uwLFiS-11">
          <mxGeometry relative="1" as="geometry" />
        </mxCell>
        <mxCell id="HXHGz3vYbTohG5uwLFiS-21" style="edgeStyle=none;rounded=0;jumpStyle=none;jumpSize=15;orthogonalLoop=1;jettySize=auto;html=1;exitX=1;exitY=0.75;exitDx=0;exitDy=0;" edge="1" parent="1" source="HXHGz3vYbTohG5uwLFiS-2" target="HXHGz3vYbTohG5uwLFiS-12">
          <mxGeometry relative="1" as="geometry" />
        </mxCell>
        <mxCell id="HXHGz3vYbTohG5uwLFiS-22" value="&lt;b&gt;GroupBy会将数据打乱（打撒），重新组合，这个操作我们称之为shuffle&lt;/b&gt;" style="text;html=1;resizable=0;autosize=1;align=center;verticalAlign=middle;points=[];fillColor=none;strokeColor=none;rounded=0;" vertex="1" parent="1">
          <mxGeometry x="120" y="110" width="410" height="20" as="geometry" />
        </mxCell>
      </root>
    </mxGraphModel>
  </diagram>
</mxfile>
